<svg xmlns="http://www.w3.org/2000/svg" xmlns:xlink="http://www.w3.org/1999/xlink" width="500" zoomAndPan="magnify" viewBox="0 0 375 374.999991" height="500" preserveAspectRatio="xMidYMid meet" version="1.0"><defs><clipPath id="755d253986"><path d="M 168 322 L 216 322 L 216 337.527344 L 168 337.527344 Z M 168 322 " clip-rule="nonzero"/></clipPath><clipPath id="07c45c22ae"><path d="M 79.875 64 L 122 64 L 122 112 L 79.875 112 Z M 79.875 64 " clip-rule="nonzero"/></clipPath><clipPath id="8515a2c990"><path d="M 187 21.777344 L 209 21.777344 L 209 85 L 187 85 Z M 187 21.777344 " clip-rule="nonzero"/></clipPath><clipPath id="cf8060e642"><path d="M 255 72 L 306.375 72 L 306.375 111 L 255 111 Z M 255 72 " clip-rule="nonzero"/></clipPath><clipPath id="119da6d640"><path d="M 123.902344 117.113281 L 222.902344 117.113281 L 222.902344 216.113281 L 123.902344 216.113281 Z M 123.902344 117.113281 " clip-rule="nonzero"/></clipPath><clipPath id="a30e2eb704"><path d="M 113.429688 272.621094 L 212.429688 272.621094 L 212.429688 371.621094 L 113.429688 371.621094 Z M 113.429688 272.621094 " clip-rule="nonzero"/></clipPath><clipPath id="4d15382292"><path d="M 173.304688 276.1875 L 272.304688 276.1875 L 272.304688 375 L 173.304688 375 Z M 173.304688 276.1875 " clip-rule="nonzero"/></clipPath><clipPath id="09fb666092"><path d="M 138.09375 272.621094 L 237.09375 272.621094 L 237.09375 371.621094 L 138.09375 371.621094 Z M 138.09375 272.621094 " clip-rule="nonzero"/></clipPath><clipPath id="6ab64dcec6"><path d="M 187.5 272.621094 L 228.75 272.621094 L 228.75 313.871094 L 187.5 313.871094 Z M 187.5 272.621094 " clip-rule="nonzero"/></clipPath><clipPath id="5a4718498a"><path d="M 205.105469 272.621094 L 240.355469 272.621094 L 240.355469 307.871094 L 205.105469 307.871094 Z M 205.105469 272.621094 " clip-rule="nonzero"/></clipPath><clipPath id="cd8de2596a"><path d="M 123.902344 117.113281 L 228.902344 117.113281 L 228.902344 222.113281 L 123.902344 222.113281 Z M 123.902344 117.113281 " clip-rule="nonzero"/></clipPath><clipPath id="676159693b"><path d="M 151.523438 142.152344 L 199.203125 142.152344 L 199.203125 209.195312 L 151.523438 209.195312 Z M 151.523438 142.152344 " clip-rule="nonzero"/></clipPath><clipPath id="0512342176"><path d="M 174 128.945312 L 177 128.945312 L 177 140 L 174 140 Z M 174 128.945312 " clip-rule="nonzero"/></clipPath><clipPath id="85a5830a48"><path d="M 202 165 L 212.320312 165 L 212.320312 167.199219 L 202 167.199219 Z M 202 165 " clip-rule="nonzero"/></clipPath><clipPath id="6fe4b7c769"><path d="M 138.09375 164 L 149 164 L 149 167 L 138.09375 167 Z M 138.09375 164 " clip-rule="nonzero"/></clipPath><clipPath id="0bebb334e7"><path d="M 153.476562 0 L 252.476562 0 L 252.476562 92.582031 L 153.476562 92.582031 Z M 153.476562 0 " clip-rule="nonzero"/></clipPath><clipPath id="f119ec630b"><path d="M 236.453125 21.777344 L 335.453125 21.777344 L 335.453125 120.777344 L 236.453125 120.777344 Z M 236.453125 21.777344 " clip-rule="nonzero"/></clipPath></defs><path fill="#fe5000" d="M 270.253906 207.882812 C 270.195312 207.816406 270.140625 207.75 270.085938 207.683594 C 263.472656 199.742188 260.8125 189.253906 262.734375 179.097656 C 263.304688 176.078125 263.613281 173.246094 263.613281 170.652344 C 263.613281 130.695312 231.230469 98.304688 191.28125 98.304688 C 162.621094 98.304688 137.855469 114.976562 126.148438 139.15625 C 136.125 122.238281 154.53125 110.886719 175.59375 110.886719 C 207.28125 110.886719 232.96875 136.578125 232.96875 168.273438 C 232.96875 199.964844 207.28125 225.65625 175.59375 225.65625 C 152.554688 225.65625 132.695312 212.074219 123.566406 192.480469 C 132.308594 217.269531 151.835938 248.972656 167.683594 272.546875 L 221.480469 272.546875 C 221.988281 272.546875 222.484375 272.582031 222.972656 272.644531 C 233.246094 272.660156 238.488281 271.71875 235.5 263.515625 C 231.261719 251.886719 245.96875 249.882812 249.515625 245.964844 C 251.324219 243.964844 251.738281 242.082031 250.796875 241.117188 C 249.769531 240.058594 248.976562 238.792969 248.316406 237.476562 L 248 236.84375 C 247.65625 236.15625 247.839844 235.3125 248.445312 234.832031 L 252.683594 231.46875 C 254.996094 230.695312 255.972656 227.957031 254.667969 225.894531 L 251.5 220.882812 L 268.355469 214.902344 C 271.269531 213.867188 272.234375 210.25 270.253906 207.882812 " fill-opacity="1" fill-rule="nonzero"/><path fill="#fe5000" d="M 216.796875 320.855469 L 167.171875 320.855469 C 161.335938 320.855469 156.601562 316.121094 156.601562 310.28125 C 156.601562 304.4375 161.335938 299.703125 167.171875 299.703125 L 216.796875 299.703125 C 222.632812 299.703125 227.367188 304.4375 227.367188 310.28125 C 227.367188 316.121094 222.632812 320.855469 216.796875 320.855469 " fill-opacity="1" fill-rule="nonzero"/><g clip-path="url(#755d253986)"><path fill="#fe5000" d="M 200.515625 337.535156 L 183.453125 337.535156 C 175.351562 337.535156 168.785156 330.964844 168.785156 322.863281 L 215.183594 322.863281 C 215.183594 330.964844 208.613281 337.535156 200.515625 337.535156 " fill-opacity="1" fill-rule="nonzero"/></g><path fill="#fe5000" d="M 221.480469 297.589844 L 162.488281 297.589844 C 156.078125 297.589844 150.882812 292.394531 150.882812 285.980469 C 150.882812 279.570312 156.078125 274.375 162.488281 274.375 L 221.480469 274.375 C 227.890625 274.375 233.085938 279.570312 233.085938 285.980469 C 233.085938 292.394531 227.890625 297.589844 221.480469 297.589844 " fill-opacity="1" fill-rule="nonzero"/><path fill="#ffffff" d="M 156.601562 159.816406 C 156.601562 168.519531 149.546875 175.574219 140.84375 175.574219 C 132.140625 175.574219 125.089844 168.519531 125.089844 159.816406 C 125.089844 151.109375 132.140625 144.054688 140.84375 144.054688 C 149.546875 144.054688 156.601562 151.109375 156.601562 159.816406 " fill-opacity="1" fill-rule="nonzero"/><path fill="#fe5000" d="M 180.550781 140.28125 C 180.550781 146.777344 175.285156 152.046875 168.785156 152.046875 C 162.289062 152.046875 157.023438 146.777344 157.023438 140.28125 C 157.023438 133.78125 162.289062 128.515625 168.785156 128.515625 C 175.285156 128.515625 180.550781 133.78125 180.550781 140.28125 " fill-opacity="1" fill-rule="nonzero"/><path fill="#ffffff" d="M 187.015625 163.8125 C 187.015625 167.5625 183.976562 170.609375 180.222656 170.609375 C 176.46875 170.609375 173.425781 167.5625 173.425781 163.8125 C 173.425781 160.054688 176.46875 157.015625 180.222656 157.015625 C 183.976562 157.015625 187.015625 160.054688 187.015625 163.8125 " fill-opacity="1" fill-rule="nonzero"/><path fill="#ffffff" d="M 218.753906 152.046875 C 218.753906 158.542969 213.492188 163.8125 206.996094 163.8125 C 200.5 163.8125 195.234375 158.542969 195.234375 152.046875 C 195.234375 145.546875 200.5 140.28125 206.996094 140.28125 C 213.492188 140.28125 218.753906 145.546875 218.753906 152.046875 " fill-opacity="1" fill-rule="nonzero"/><path fill="#ffffff" d="M 193.90625 183.273438 C 193.90625 188.65625 189.546875 193.019531 184.164062 193.019531 C 178.78125 193.019531 174.421875 188.65625 174.421875 183.273438 C 174.421875 177.894531 178.78125 173.527344 184.164062 173.527344 C 189.546875 173.527344 193.90625 177.894531 193.90625 183.273438 " fill-opacity="1" fill-rule="nonzero"/><path fill="#fe5000" d="M 212.644531 180.816406 C 212.644531 184.835938 209.382812 188.101562 205.359375 188.101562 C 201.339844 188.101562 198.078125 184.835938 198.078125 180.816406 C 198.078125 176.789062 201.339844 173.527344 205.359375 173.527344 C 209.382812 173.527344 212.644531 176.789062 212.644531 180.816406 " fill-opacity="1" fill-rule="nonzero"/><path fill="#fe5000" d="M 175.472656 199.105469 C 175.472656 205.601562 170.207031 210.871094 163.710938 210.871094 C 157.214844 210.871094 151.949219 205.601562 151.949219 199.105469 C 151.949219 192.609375 157.214844 187.339844 163.710938 187.339844 C 170.207031 187.339844 175.472656 192.609375 175.472656 199.105469 " fill-opacity="1" fill-rule="nonzero"/><g clip-path="url(#07c45c22ae)"><path fill="#ffffff" d="M 82.355469 84.402344 L 102.824219 87.058594 L 79.910156 64.136719 L 121.957031 93.886719 L 99.125 91.257812 L 121.957031 111.136719 L 82.355469 84.402344 " fill-opacity="1" fill-rule="nonzero"/></g><path fill="#ffffff" d="M 129.640625 48.617188 L 147.847656 58.34375 L 134.527344 28.792969 L 163.324219 71.503906 L 142.902344 60.964844 L 157.21875 87.636719 L 129.640625 48.617188 " fill-opacity="1" fill-rule="nonzero"/><g clip-path="url(#8515a2c990)"><path fill="#fe5000" d="M 187.613281 37.703125 L 200.035156 54.1875 L 200.382812 21.773438 L 208.539062 72.636719 L 194.449219 54.484375 L 196.21875 84.707031 L 187.613281 37.703125 " fill-opacity="1" fill-rule="nonzero"/></g><path fill="#ffffff" d="M 239.195312 40.332031 L 243.832031 60.449219 L 257.34375 30.988281 L 244.085938 80.765625 L 238.605469 58.445312 L 227.917969 86.769531 L 239.195312 40.332031 " fill-opacity="1" fill-rule="nonzero"/><g clip-path="url(#cf8060e642)"><path fill="#fe5000" d="M 285.933594 72.507812 L 281.160156 92.589844 L 306.34375 72.183594 L 272.378906 110.914062 L 277.371094 88.476562 L 255.226562 109.113281 L 285.933594 72.507812 " fill-opacity="1" fill-rule="nonzero"/></g><g clip-path="url(#119da6d640)"><path fill="#ffffff" d="M 222.902344 166.613281 C 222.902344 168.234375 222.820312 169.851562 222.664062 171.464844 C 222.503906 173.078125 222.265625 174.683594 221.949219 176.273438 C 221.632812 177.863281 221.242188 179.433594 220.769531 180.984375 C 220.300781 182.535156 219.753906 184.058594 219.132812 185.558594 C 218.511719 187.054688 217.820312 188.519531 217.054688 189.949219 C 216.292969 191.378906 215.460938 192.765625 214.558594 194.117188 C 213.660156 195.464844 212.695312 196.765625 211.664062 198.015625 C 210.636719 199.269531 209.550781 200.46875 208.402344 201.617188 C 207.257812 202.761719 206.058594 203.851562 204.804688 204.878906 C 203.550781 205.90625 202.25 206.871094 200.902344 207.773438 C 199.554688 208.671875 198.164062 209.503906 196.734375 210.269531 C 195.304688 211.035156 193.84375 211.726562 192.34375 212.347656 C 190.847656 212.96875 189.320312 213.511719 187.769531 213.984375 C 186.21875 214.453125 184.648438 214.847656 183.058594 215.164062 C 181.46875 215.480469 179.867188 215.71875 178.253906 215.875 C 176.640625 216.035156 175.023438 216.113281 173.402344 216.113281 C 171.78125 216.113281 170.164062 216.035156 168.550781 215.875 C 166.9375 215.71875 165.335938 215.480469 163.746094 215.164062 C 162.152344 214.847656 160.582031 214.453125 159.03125 213.984375 C 157.480469 213.511719 155.957031 212.96875 154.457031 212.347656 C 152.960938 211.726562 151.496094 211.035156 150.066406 210.269531 C 148.636719 209.503906 147.25 208.671875 145.902344 207.773438 C 144.550781 206.871094 143.253906 205.90625 142 204.878906 C 140.746094 203.851562 139.546875 202.761719 138.398438 201.617188 C 137.253906 200.46875 136.164062 199.269531 135.136719 198.015625 C 134.109375 196.765625 133.144531 195.464844 132.242188 194.117188 C 131.34375 192.765625 130.511719 191.378906 129.746094 189.949219 C 128.980469 188.519531 128.289062 187.054688 127.667969 185.558594 C 127.046875 184.058594 126.503906 182.535156 126.03125 180.984375 C 125.5625 179.433594 125.167969 177.863281 124.851562 176.273438 C 124.535156 174.683594 124.296875 173.078125 124.140625 171.464844 C 123.980469 169.851562 123.902344 168.234375 123.902344 166.613281 C 123.902344 164.992188 123.980469 163.375 124.140625 161.761719 C 124.296875 160.148438 124.535156 158.546875 124.851562 156.957031 C 125.167969 155.367188 125.5625 153.796875 126.03125 152.246094 C 126.503906 150.695312 127.046875 149.167969 127.667969 147.671875 C 128.289062 146.175781 128.980469 144.710938 129.746094 143.28125 C 130.511719 141.851562 131.34375 140.460938 132.242188 139.113281 C 133.144531 137.765625 134.109375 136.464844 135.136719 135.210938 C 136.164062 133.960938 137.253906 132.757812 138.398438 131.613281 C 139.546875 130.464844 140.746094 129.378906 142 128.351562 C 143.253906 127.324219 144.550781 126.359375 145.902344 125.457031 C 147.25 124.554688 148.636719 123.722656 150.066406 122.960938 C 151.496094 122.195312 152.960938 121.503906 154.457031 120.882812 C 155.957031 120.261719 157.480469 119.71875 159.03125 119.246094 C 160.582031 118.777344 162.152344 118.382812 163.746094 118.066406 C 165.335938 117.75 166.9375 117.511719 168.550781 117.351562 C 170.164062 117.195312 171.78125 117.113281 173.402344 117.113281 C 175.023438 117.113281 176.640625 117.195312 178.253906 117.351562 C 179.867188 117.511719 181.46875 117.75 183.058594 118.066406 C 184.648438 118.382812 186.21875 118.777344 187.769531 119.246094 C 189.320312 119.71875 190.847656 120.261719 192.34375 120.882812 C 193.84375 121.503906 195.304688 122.195312 196.734375 122.960938 C 198.164062 123.722656 199.554688 124.554688 200.902344 125.457031 C 202.25 126.359375 203.550781 127.324219 204.804688 128.351562 C 206.058594 129.378906 207.257812 130.464844 208.402344 131.613281 C 209.550781 132.757812 210.636719 133.960938 211.664062 135.210938 C 212.695312 136.464844 213.660156 137.765625 214.558594 139.113281 C 215.460938 140.460938 216.292969 141.851562 217.054688 143.28125 C 217.820312 144.710938 218.511719 146.175781 219.132812 147.671875 C 219.753906 149.167969 220.300781 150.695312 220.769531 152.246094 C 221.242188 153.796875 221.632812 155.367188 221.949219 156.957031 C 222.265625 158.546875 222.503906 160.148438 222.664062 161.761719 C 222.820312 163.375 222.902344 164.992188 222.902344 166.613281 Z M 222.902344 166.613281 " fill-opacity="1" fill-rule="nonzero"/></g><g clip-path="url(#a30e2eb704)"><path fill="#ffffff" d="M 212.429688 322.121094 C 212.429688 323.742188 212.351562 325.359375 212.191406 326.972656 C 212.035156 328.585938 211.796875 330.1875 211.480469 331.777344 C 211.164062 333.367188 210.769531 334.9375 210.300781 336.492188 C 209.828125 338.042969 209.28125 339.566406 208.664062 341.0625 C 208.042969 342.5625 207.351562 344.027344 206.585938 345.457031 C 205.820312 346.886719 204.988281 348.273438 204.089844 349.621094 C 203.1875 350.96875 202.222656 352.269531 201.195312 353.523438 C 200.167969 354.777344 199.078125 355.976562 197.933594 357.125 C 196.785156 358.269531 195.585938 359.355469 194.332031 360.386719 C 193.078125 361.414062 191.78125 362.378906 190.429688 363.277344 C 189.082031 364.179688 187.695312 365.011719 186.265625 365.777344 C 184.835938 366.539062 183.371094 367.234375 181.875 367.851562 C 180.375 368.472656 178.851562 369.019531 177.300781 369.488281 C 175.75 369.960938 174.175781 370.355469 172.585938 370.671875 C 170.996094 370.988281 169.394531 371.222656 167.78125 371.382812 C 166.167969 371.542969 164.550781 371.621094 162.929688 371.621094 C 161.308594 371.621094 159.691406 371.542969 158.078125 371.382812 C 156.464844 371.222656 154.863281 370.988281 153.273438 370.671875 C 151.683594 370.355469 150.113281 369.960938 148.5625 369.488281 C 147.011719 369.019531 145.484375 368.472656 143.988281 367.851562 C 142.488281 367.234375 141.027344 366.539062 139.597656 365.777344 C 138.167969 365.011719 136.777344 364.179688 135.429688 363.277344 C 134.082031 362.378906 132.78125 361.414062 131.527344 360.386719 C 130.273438 359.355469 129.074219 358.269531 127.929688 357.125 C 126.78125 355.976562 125.695312 354.777344 124.667969 353.523438 C 123.636719 352.269531 122.671875 350.96875 121.773438 349.621094 C 120.871094 348.273438 120.039062 346.886719 119.277344 345.457031 C 118.511719 344.027344 117.820312 342.5625 117.199219 341.0625 C 116.578125 339.566406 116.03125 338.042969 115.5625 336.492188 C 115.089844 334.9375 114.699219 333.367188 114.382812 331.777344 C 114.066406 330.1875 113.828125 328.585938 113.667969 326.972656 C 113.511719 325.359375 113.429688 323.742188 113.429688 322.121094 C 113.429688 320.5 113.511719 318.882812 113.667969 317.269531 C 113.828125 315.65625 114.066406 314.054688 114.382812 312.464844 C 114.699219 310.875 115.089844 309.304688 115.5625 307.753906 C 116.03125 306.199219 116.578125 304.675781 117.199219 303.179688 C 117.820312 301.679688 118.511719 300.21875 119.277344 298.789062 C 120.039062 297.359375 120.871094 295.96875 121.773438 294.621094 C 122.671875 293.273438 123.636719 291.972656 124.667969 290.71875 C 125.695312 289.464844 126.78125 288.265625 127.929688 287.121094 C 129.074219 285.972656 130.273438 284.886719 131.527344 283.859375 C 132.78125 282.828125 134.082031 281.863281 135.429688 280.964844 C 136.777344 280.0625 138.167969 279.230469 139.597656 278.464844 C 141.027344 277.703125 142.488281 277.011719 143.988281 276.390625 C 145.484375 275.769531 147.011719 275.222656 148.5625 274.753906 C 150.113281 274.28125 151.683594 273.890625 153.273438 273.574219 C 154.863281 273.257812 156.464844 273.019531 158.078125 272.859375 C 159.691406 272.699219 161.308594 272.621094 162.929688 272.621094 C 164.550781 272.621094 166.167969 272.699219 167.78125 272.859375 C 169.394531 273.019531 170.996094 273.257812 172.585938 273.574219 C 174.175781 273.890625 175.75 274.28125 177.300781 274.753906 C 178.851562 275.222656 180.375 275.769531 181.875 276.390625 C 183.371094 277.011719 184.835938 277.703125 186.265625 278.464844 C 187.695312 279.230469 189.082031 280.0625 190.429688 280.964844 C 191.78125 281.863281 193.078125 282.828125 194.332031 283.859375 C 195.585938 284.886719 196.785156 285.972656 197.933594 287.121094 C 199.078125 288.265625 200.167969 289.464844 201.195312 290.71875 C 202.222656 291.972656 203.1875 293.273438 204.089844 294.621094 C 204.988281 295.96875 205.820312 297.359375 206.585938 298.789062 C 207.351562 300.21875 208.042969 301.679688 208.664062 303.179688 C 209.28125 304.675781 209.828125 306.199219 210.300781 307.753906 C 210.769531 309.304688 211.164062 310.875 211.480469 312.464844 C 211.796875 314.054688 212.035156 315.65625 212.191406 317.269531 C 212.351562 318.882812 212.429688 320.5 212.429688 322.121094 Z M 212.429688 322.121094 " fill-opacity="1" fill-rule="nonzero"/></g><g clip-path="url(#4d15382292)"><path fill="#ffffff" d="M 272.304688 325.6875 C 272.304688 327.308594 272.226562 328.925781 272.066406 330.542969 C 271.910156 332.15625 271.671875 333.757812 271.355469 335.347656 C 271.039062 336.9375 270.644531 338.507812 270.175781 340.058594 C 269.703125 341.609375 269.160156 343.132812 268.539062 344.632812 C 267.917969 346.128906 267.226562 347.59375 266.460938 349.023438 C 265.699219 350.453125 264.863281 351.84375 263.964844 353.191406 C 263.0625 354.539062 262.097656 355.839844 261.070312 357.089844 C 260.042969 358.34375 258.953125 359.542969 257.808594 360.691406 C 256.660156 361.835938 255.460938 362.925781 254.210938 363.953125 C 252.957031 364.980469 251.65625 365.945312 250.308594 366.847656 C 248.960938 367.746094 247.570312 368.578125 246.140625 369.34375 C 244.710938 370.109375 243.246094 370.800781 241.75 371.421875 C 240.25 372.042969 238.726562 372.585938 237.175781 373.058594 C 235.625 373.527344 234.054688 373.921875 232.464844 374.238281 C 230.875 374.554688 229.273438 374.792969 227.660156 374.949219 C 226.046875 375.109375 224.429688 375.1875 222.804688 375.1875 C 221.183594 375.1875 219.566406 375.109375 217.953125 374.949219 C 216.339844 374.792969 214.738281 374.554688 213.148438 374.238281 C 211.558594 373.921875 209.988281 373.527344 208.4375 373.058594 C 206.886719 372.585938 205.363281 372.042969 203.863281 371.421875 C 202.367188 370.800781 200.902344 370.109375 199.472656 369.34375 C 198.042969 368.578125 196.652344 367.746094 195.304688 366.847656 C 193.957031 365.945312 192.65625 364.980469 191.402344 363.953125 C 190.152344 362.925781 188.949219 361.835938 187.804688 360.691406 C 186.660156 359.542969 185.570312 358.34375 184.542969 357.089844 C 183.515625 355.839844 182.550781 354.539062 181.648438 353.191406 C 180.75 351.84375 179.914062 350.453125 179.152344 349.023438 C 178.386719 347.59375 177.695312 346.128906 177.074219 344.632812 C 176.453125 343.132812 175.910156 341.609375 175.4375 340.058594 C 174.96875 338.507812 174.574219 336.9375 174.257812 335.347656 C 173.941406 333.757812 173.703125 332.15625 173.546875 330.542969 C 173.386719 328.925781 173.304688 327.308594 173.304688 325.6875 C 173.304688 324.066406 173.386719 322.449219 173.546875 320.835938 C 173.703125 319.222656 173.941406 317.621094 174.257812 316.03125 C 174.574219 314.441406 174.96875 312.871094 175.4375 311.320312 C 175.910156 309.769531 176.453125 308.246094 177.074219 306.746094 C 177.695312 305.25 178.386719 303.785156 179.152344 302.355469 C 179.914062 300.925781 180.75 299.535156 181.648438 298.1875 C 182.550781 296.839844 183.515625 295.539062 184.542969 294.285156 C 185.570312 293.035156 186.660156 291.832031 187.804688 290.6875 C 188.949219 289.542969 190.152344 288.453125 191.402344 287.425781 C 192.65625 286.398438 193.957031 285.433594 195.304688 284.53125 C 196.652344 283.628906 198.042969 282.796875 199.472656 282.035156 C 200.902344 281.269531 202.367188 280.578125 203.863281 279.957031 C 205.363281 279.335938 206.886719 278.792969 208.4375 278.320312 C 209.988281 277.851562 211.558594 277.457031 213.148438 277.140625 C 214.738281 276.824219 216.339844 276.585938 217.953125 276.425781 C 219.566406 276.269531 221.183594 276.1875 222.804688 276.1875 C 224.429688 276.1875 226.046875 276.269531 227.660156 276.425781 C 229.273438 276.585938 230.875 276.824219 232.464844 277.140625 C 234.054688 277.457031 235.625 277.851562 237.175781 278.320312 C 238.726562 278.792969 240.25 279.335938 241.75 279.957031 C 243.246094 280.578125 244.710938 281.269531 246.140625 282.035156 C 247.570312 282.796875 248.960938 283.628906 250.308594 284.53125 C 251.65625 285.433594 252.957031 286.398438 254.210938 287.425781 C 255.460938 288.453125 256.660156 289.542969 257.808594 290.6875 C 258.953125 291.832031 260.042969 293.035156 261.070312 294.285156 C 262.097656 295.539062 263.0625 296.839844 263.964844 298.1875 C 264.863281 299.535156 265.699219 300.925781 266.460938 302.355469 C 267.226562 303.785156 267.917969 305.25 268.539062 306.746094 C 269.160156 308.246094 269.703125 309.769531 270.175781 311.320312 C 270.644531 312.871094 271.039062 314.441406 271.355469 316.03125 C 271.671875 317.621094 271.910156 319.222656 272.066406 320.835938 C 272.226562 322.449219 272.304688 324.066406 272.304688 325.6875 Z M 272.304688 325.6875 " fill-opacity="1" fill-rule="nonzero"/></g><g clip-path="url(#09fb666092)"><path fill="#ffffff" d="M 237.09375 322.121094 C 237.09375 323.742188 237.015625 325.359375 236.855469 326.972656 C 236.699219 328.585938 236.460938 330.1875 236.144531 331.777344 C 235.828125 333.367188 235.433594 334.9375 234.964844 336.492188 C 234.492188 338.042969 233.945312 339.566406 233.328125 341.0625 C 232.707031 342.5625 232.015625 344.027344 231.25 345.457031 C 230.484375 346.886719 229.652344 348.273438 228.753906 349.621094 C 227.851562 350.96875 226.886719 352.269531 225.859375 353.523438 C 224.832031 354.777344 223.742188 355.976562 222.597656 357.125 C 221.449219 358.269531 220.25 359.355469 218.996094 360.386719 C 217.742188 361.414062 216.441406 362.378906 215.09375 363.277344 C 213.746094 364.179688 212.359375 365.011719 210.929688 365.777344 C 209.5 366.539062 208.035156 367.234375 206.539062 367.851562 C 205.039062 368.472656 203.515625 369.019531 201.964844 369.488281 C 200.414062 369.960938 198.839844 370.355469 197.25 370.671875 C 195.660156 370.988281 194.058594 371.222656 192.445312 371.382812 C 190.832031 371.542969 189.214844 371.621094 187.59375 371.621094 C 185.972656 371.621094 184.355469 371.542969 182.742188 371.382812 C 181.128906 371.222656 179.527344 370.988281 177.9375 370.671875 C 176.347656 370.355469 174.777344 369.960938 173.226562 369.488281 C 171.675781 369.019531 170.148438 368.472656 168.652344 367.851562 C 167.152344 367.234375 165.691406 366.539062 164.261719 365.777344 C 162.832031 365.011719 161.441406 364.179688 160.09375 363.277344 C 158.746094 362.378906 157.445312 361.414062 156.191406 360.386719 C 154.9375 359.355469 153.738281 358.269531 152.59375 357.125 C 151.445312 355.976562 150.359375 354.777344 149.332031 353.523438 C 148.300781 352.269531 147.335938 350.96875 146.4375 349.621094 C 145.535156 348.273438 144.703125 346.886719 143.941406 345.457031 C 143.175781 344.027344 142.484375 342.5625 141.863281 341.0625 C 141.242188 339.566406 140.695312 338.042969 140.226562 336.492188 C 139.753906 334.9375 139.363281 333.367188 139.046875 331.777344 C 138.730469 330.1875 138.492188 328.585938 138.332031 326.972656 C 138.175781 325.359375 138.09375 323.742188 138.09375 322.121094 C 138.09375 320.5 138.175781 318.882812 138.332031 317.269531 C 138.492188 315.65625 138.730469 314.054688 139.046875 312.464844 C 139.363281 310.875 139.753906 309.304688 140.226562 307.753906 C 140.695312 306.199219 141.242188 304.675781 141.863281 303.179688 C 142.484375 301.679688 143.175781 300.21875 143.941406 298.789062 C 144.703125 297.359375 145.535156 295.96875 146.4375 294.621094 C 147.335938 293.273438 148.300781 291.972656 149.332031 290.71875 C 150.359375 289.464844 151.445312 288.265625 152.59375 287.121094 C 153.738281 285.972656 154.9375 284.886719 156.191406 283.859375 C 157.445312 282.828125 158.746094 281.863281 160.09375 280.964844 C 161.441406 280.0625 162.832031 279.230469 164.261719 278.464844 C 165.691406 277.703125 167.152344 277.011719 168.652344 276.390625 C 170.148438 275.769531 171.675781 275.222656 173.226562 274.753906 C 174.777344 274.28125 176.347656 273.890625 177.9375 273.574219 C 179.527344 273.257812 181.128906 273.019531 182.742188 272.859375 C 184.355469 272.699219 185.972656 272.621094 187.59375 272.621094 C 189.214844 272.621094 190.832031 272.699219 192.445312 272.859375 C 194.058594 273.019531 195.660156 273.257812 197.25 273.574219 C 198.839844 273.890625 200.414062 274.28125 201.964844 274.753906 C 203.515625 275.222656 205.039062 275.769531 206.539062 276.390625 C 208.035156 277.011719 209.5 277.703125 210.929688 278.464844 C 212.359375 279.230469 213.746094 280.0625 215.09375 280.964844 C 216.441406 281.863281 217.742188 282.828125 218.996094 283.859375 C 220.25 284.886719 221.449219 285.972656 222.597656 287.121094 C 223.742188 288.265625 224.832031 289.464844 225.859375 290.71875 C 226.886719 291.972656 227.851562 293.273438 228.753906 294.621094 C 229.652344 295.96875 230.484375 297.359375 231.25 298.789062 C 232.015625 300.21875 232.707031 301.679688 233.328125 303.179688 C 233.945312 304.675781 234.492188 306.199219 234.964844 307.753906 C 235.433594 309.304688 235.828125 310.875 236.144531 312.464844 C 236.460938 314.054688 236.699219 315.65625 236.855469 317.269531 C 237.015625 318.882812 237.09375 320.5 237.09375 322.121094 Z M 237.09375 322.121094 " fill-opacity="1" fill-rule="nonzero"/></g><g clip-path="url(#6ab64dcec6)"><path fill="#ffffff" d="M 228.75 293.246094 C 228.75 293.921875 228.71875 294.597656 228.652344 295.269531 C 228.585938 295.941406 228.484375 296.609375 228.355469 297.269531 C 228.222656 297.933594 228.058594 298.585938 227.863281 299.234375 C 227.664062 299.878906 227.4375 300.515625 227.179688 301.140625 C 226.921875 301.761719 226.632812 302.375 226.316406 302.96875 C 225.996094 303.566406 225.648438 304.144531 225.273438 304.707031 C 224.898438 305.265625 224.496094 305.808594 224.066406 306.332031 C 223.640625 306.851562 223.1875 307.351562 222.710938 307.832031 C 222.230469 308.308594 221.730469 308.761719 221.210938 309.191406 C 220.6875 309.617188 220.144531 310.019531 219.582031 310.394531 C 219.023438 310.769531 218.441406 311.117188 217.847656 311.4375 C 217.25 311.753906 216.640625 312.042969 216.019531 312.300781 C 215.394531 312.558594 214.757812 312.789062 214.113281 312.984375 C 213.464844 313.179688 212.8125 313.34375 212.148438 313.476562 C 211.484375 313.605469 210.820312 313.707031 210.148438 313.773438 C 209.472656 313.839844 208.800781 313.871094 208.125 313.871094 C 207.449219 313.871094 206.777344 313.839844 206.101562 313.773438 C 205.429688 313.707031 204.765625 313.605469 204.101562 313.476562 C 203.4375 313.34375 202.785156 313.179688 202.136719 312.984375 C 201.492188 312.789062 200.855469 312.558594 200.230469 312.300781 C 199.609375 312.042969 199 311.753906 198.402344 311.4375 C 197.808594 311.117188 197.226562 310.769531 196.667969 310.394531 C 196.105469 310.019531 195.5625 309.617188 195.039062 309.191406 C 194.519531 308.761719 194.019531 308.308594 193.539062 307.832031 C 193.0625 307.351562 192.609375 306.851562 192.183594 306.332031 C 191.753906 305.808594 191.351562 305.265625 190.976562 304.707031 C 190.601562 304.144531 190.253906 303.566406 189.933594 302.96875 C 189.617188 302.375 189.328125 301.761719 189.070312 301.140625 C 188.8125 300.515625 188.585938 299.878906 188.386719 299.234375 C 188.191406 298.585938 188.027344 297.933594 187.894531 297.269531 C 187.765625 296.609375 187.664062 295.941406 187.597656 295.269531 C 187.53125 294.597656 187.5 293.921875 187.5 293.246094 C 187.5 292.570312 187.53125 291.898438 187.597656 291.226562 C 187.664062 290.550781 187.765625 289.886719 187.894531 289.222656 C 188.027344 288.558594 188.191406 287.90625 188.386719 287.257812 C 188.585938 286.613281 188.8125 285.976562 189.070312 285.355469 C 189.328125 284.730469 189.617188 284.121094 189.933594 283.523438 C 190.253906 282.929688 190.601562 282.347656 190.976562 281.789062 C 191.351562 281.226562 191.753906 280.683594 192.183594 280.164062 C 192.609375 279.640625 193.0625 279.140625 193.539062 278.664062 C 194.019531 278.183594 194.519531 277.730469 195.039062 277.304688 C 195.5625 276.875 196.105469 276.472656 196.667969 276.097656 C 197.226562 275.722656 197.808594 275.375 198.402344 275.058594 C 199 274.738281 199.609375 274.449219 200.230469 274.191406 C 200.855469 273.933594 201.492188 273.707031 202.136719 273.507812 C 202.785156 273.3125 203.4375 273.148438 204.101562 273.019531 C 204.765625 272.886719 205.429688 272.785156 206.101562 272.722656 C 206.777344 272.65625 207.449219 272.621094 208.125 272.621094 C 208.800781 272.621094 209.472656 272.65625 210.148438 272.722656 C 210.820312 272.785156 211.484375 272.886719 212.148438 273.019531 C 212.8125 273.148438 213.464844 273.3125 214.113281 273.507812 C 214.757812 273.707031 215.394531 273.933594 216.019531 274.191406 C 216.640625 274.449219 217.25 274.738281 217.847656 275.058594 C 218.441406 275.375 219.023438 275.722656 219.582031 276.097656 C 220.144531 276.472656 220.6875 276.875 221.210938 277.304688 C 221.730469 277.730469 222.230469 278.183594 222.710938 278.664062 C 223.1875 279.140625 223.640625 279.640625 224.066406 280.164062 C 224.496094 280.683594 224.898438 281.226562 225.273438 281.789062 C 225.648438 282.347656 225.996094 282.929688 226.316406 283.523438 C 226.632812 284.121094 226.921875 284.730469 227.179688 285.355469 C 227.4375 285.976562 227.664062 286.613281 227.863281 287.257812 C 228.058594 287.90625 228.222656 288.558594 228.355469 289.222656 C 228.484375 289.886719 228.585938 290.550781 228.652344 291.226562 C 228.71875 291.898438 228.75 292.570312 228.75 293.246094 Z M 228.75 293.246094 " fill-opacity="1" fill-rule="nonzero"/></g><g clip-path="url(#5a4718498a)"><path fill="#ffffff" d="M 240.355469 290.246094 C 240.355469 290.824219 240.328125 291.398438 240.269531 291.972656 C 240.214844 292.546875 240.128906 293.117188 240.015625 293.683594 C 239.90625 294.25 239.765625 294.808594 239.597656 295.363281 C 239.429688 295.914062 239.234375 296.457031 239.015625 296.992188 C 238.792969 297.523438 238.546875 298.046875 238.273438 298.554688 C 238.003906 299.0625 237.707031 299.558594 237.386719 300.039062 C 237.066406 300.519531 236.722656 300.980469 236.355469 301.425781 C 235.988281 301.875 235.601562 302.300781 235.195312 302.710938 C 234.785156 303.117188 234.359375 303.503906 233.914062 303.871094 C 233.464844 304.238281 233.003906 304.582031 232.523438 304.902344 C 232.042969 305.222656 231.546875 305.519531 231.039062 305.789062 C 230.53125 306.0625 230.007812 306.308594 229.476562 306.53125 C 228.941406 306.75 228.398438 306.945312 227.847656 307.113281 C 227.292969 307.28125 226.734375 307.421875 226.167969 307.53125 C 225.601562 307.644531 225.03125 307.730469 224.457031 307.785156 C 223.882812 307.84375 223.308594 307.871094 222.730469 307.871094 C 222.152344 307.871094 221.578125 307.84375 221.003906 307.785156 C 220.429688 307.730469 219.859375 307.644531 219.292969 307.53125 C 218.726562 307.421875 218.167969 307.28125 217.613281 307.113281 C 217.0625 306.945312 216.519531 306.75 215.984375 306.53125 C 215.453125 306.308594 214.933594 306.0625 214.421875 305.789062 C 213.914062 305.519531 213.417969 305.222656 212.9375 304.902344 C 212.460938 304.582031 211.996094 304.238281 211.550781 303.871094 C 211.105469 303.503906 210.675781 303.117188 210.269531 302.710938 C 209.859375 302.300781 209.472656 301.875 209.105469 301.425781 C 208.742188 300.980469 208.398438 300.519531 208.078125 300.039062 C 207.753906 299.558594 207.460938 299.0625 207.1875 298.554688 C 206.914062 298.046875 206.667969 297.523438 206.449219 296.992188 C 206.226562 296.457031 206.03125 295.914062 205.863281 295.363281 C 205.699219 294.808594 205.558594 294.25 205.445312 293.683594 C 205.332031 293.117188 205.246094 292.546875 205.191406 291.972656 C 205.132812 291.398438 205.105469 290.824219 205.105469 290.246094 C 205.105469 289.667969 205.132812 289.09375 205.191406 288.519531 C 205.246094 287.945312 205.332031 287.375 205.445312 286.808594 C 205.558594 286.242188 205.699219 285.683594 205.863281 285.128906 C 206.03125 284.578125 206.226562 284.035156 206.449219 283.5 C 206.667969 282.96875 206.914062 282.445312 207.1875 281.9375 C 207.460938 281.429688 207.753906 280.933594 208.078125 280.453125 C 208.398438 279.976562 208.742188 279.511719 209.105469 279.066406 C 209.472656 278.617188 209.859375 278.191406 210.269531 277.785156 C 210.675781 277.375 211.105469 276.988281 211.550781 276.621094 C 211.996094 276.257812 212.460938 275.914062 212.9375 275.59375 C 213.417969 275.269531 213.914062 274.976562 214.421875 274.703125 C 214.933594 274.429688 215.453125 274.183594 215.984375 273.964844 C 216.519531 273.742188 217.0625 273.546875 217.613281 273.378906 C 218.167969 273.210938 218.726562 273.074219 219.292969 272.960938 C 219.859375 272.847656 220.429688 272.761719 221.003906 272.707031 C 221.578125 272.648438 222.152344 272.621094 222.730469 272.621094 C 223.308594 272.621094 223.882812 272.648438 224.457031 272.707031 C 225.03125 272.761719 225.601562 272.847656 226.167969 272.960938 C 226.734375 273.074219 227.292969 273.210938 227.847656 273.378906 C 228.398438 273.546875 228.941406 273.742188 229.476562 273.964844 C 230.007812 274.183594 230.53125 274.429688 231.039062 274.703125 C 231.546875 274.976562 232.042969 275.269531 232.523438 275.59375 C 233.003906 275.914062 233.464844 276.257812 233.914062 276.621094 C 234.359375 276.988281 234.785156 277.375 235.195312 277.785156 C 235.601562 278.191406 235.988281 278.617188 236.355469 279.066406 C 236.722656 279.511719 237.066406 279.976562 237.386719 280.453125 C 237.707031 280.933594 238.003906 281.429688 238.273438 281.9375 C 238.546875 282.445312 238.792969 282.96875 239.015625 283.5 C 239.234375 284.035156 239.429688 284.578125 239.597656 285.128906 C 239.765625 285.683594 239.90625 286.242188 240.015625 286.808594 C 240.128906 287.375 240.214844 287.945312 240.269531 288.519531 C 240.328125 289.09375 240.355469 289.667969 240.355469 290.246094 Z M 240.355469 290.246094 " fill-opacity="1" fill-rule="nonzero"/></g><g clip-path="url(#cd8de2596a)"><path fill="#fe5000" d="M 176.402344 222.113281 C 147.398438 222.113281 123.902344 198.457031 123.902344 169.613281 C 123.902344 140.773438 147.398438 117.113281 176.402344 117.113281 C 205.40625 117.113281 228.902344 140.609375 228.902344 169.613281 C 228.902344 198.621094 205.242188 222.113281 176.402344 222.113281 Z M 176.402344 120.355469 C 149.179688 120.355469 127.140625 142.390625 127.140625 169.613281 C 127.140625 196.835938 149.179688 218.875 176.402344 218.875 C 203.625 218.875 225.660156 196.835938 225.660156 169.613281 C 225.660156 142.390625 203.460938 120.355469 176.402344 120.355469 Z M 176.402344 120.355469 " fill-opacity="1" fill-rule="nonzero"/></g><g clip-path="url(#676159693b)"><path fill="#fe5000" d="M 190.34375 180.488281 C 188.101562 183.519531 186.746094 185.261719 185.789062 187.128906 C 184.910156 188.84375 184.367188 190.664062 183.777344 193.679688 L 166.859375 193.679688 C 166.269531 190.664062 165.726562 188.84375 164.847656 187.128906 C 163.890625 185.261719 162.535156 183.519531 160.292969 180.488281 C 156.589844 176.714844 154.304688 171.558594 154.304688 165.878906 C 154.304688 154.339844 163.730469 144.957031 175.316406 144.957031 C 186.90625 144.957031 196.332031 154.339844 196.332031 165.878906 C 196.332031 171.558594 194.046875 176.714844 190.34375 180.488281 Z M 183.03125 199.03125 L 167.605469 199.03125 C 167.589844 198.660156 167.585938 198.269531 167.597656 197.859375 C 167.515625 197.359375 167.433594 196.882812 167.359375 196.429688 L 183.277344 196.429688 C 183.199219 196.882812 183.121094 197.359375 183.039062 197.859375 C 183.050781 198.269531 183.046875 198.660156 183.03125 199.03125 Z M 177.238281 206.261719 C 177.1875 205.683594 176.699219 205.222656 176.101562 205.222656 L 174.28125 205.222656 C 173.699219 205.222656 173.21875 205.660156 173.152344 206.222656 C 173.152344 206.222656 173.148438 206.222656 173.148438 206.222656 C 171.398438 205.898438 169.0625 204.875 168.070312 201.785156 L 182.566406 201.785156 C 181.523438 205.023438 179.011719 205.996094 177.238281 206.261719 Z M 175.316406 142.203125 C 162.207031 142.203125 151.539062 152.824219 151.539062 165.878906 C 151.539062 172.277344 154.101562 178.089844 158.261719 182.355469 C 158.265625 182.359375 158.269531 182.363281 158.273438 182.367188 C 158.273438 182.371094 158.277344 182.375 158.28125 182.378906 C 158.695312 182.851562 165.460938 190.6875 165.167969 198.160156 C 164.863281 205.875 169.371094 209.199219 175.316406 209.199219 C 181.265625 209.199219 185.773438 205.875 185.46875 198.160156 C 185.171875 190.6875 191.941406 182.851562 192.355469 182.378906 C 192.359375 182.375 192.359375 182.371094 192.363281 182.367188 C 192.367188 182.363281 192.371094 182.359375 192.375 182.355469 C 196.535156 178.089844 199.097656 172.277344 199.097656 165.878906 C 199.097656 152.824219 188.429688 142.203125 175.316406 142.203125 " fill-opacity="1" fill-rule="nonzero"/></g><g clip-path="url(#0512342176)"><path fill="#fe5000" d="M 175.414062 139.140625 C 175.988281 139.140625 176.453125 138.679688 176.453125 138.109375 L 176.453125 129.976562 C 176.453125 129.40625 175.988281 128.945312 175.414062 128.945312 C 174.84375 128.945312 174.378906 129.40625 174.378906 129.976562 L 174.378906 138.109375 C 174.378906 138.679688 174.84375 139.140625 175.414062 139.140625 " fill-opacity="1" fill-rule="nonzero"/></g><path fill="#fe5000" d="M 188.480469 142.625 C 188.644531 142.71875 188.824219 142.765625 189 142.765625 C 189.355469 142.765625 189.707031 142.578125 189.898438 142.25 L 193.980469 135.207031 C 194.265625 134.710938 194.097656 134.082031 193.601562 133.796875 C 193.105469 133.511719 192.472656 133.679688 192.183594 134.175781 L 188.101562 141.214844 C 187.816406 141.710938 187.984375 142.339844 188.480469 142.625 " fill-opacity="1" fill-rule="nonzero"/><path fill="#fe5000" d="M 207.449219 147.582031 C 207.160156 147.089844 206.527344 146.921875 206.03125 147.207031 L 198.960938 151.269531 C 198.464844 151.554688 198.292969 152.1875 198.582031 152.679688 C 198.773438 153.011719 199.121094 153.195312 199.480469 153.195312 C 199.65625 153.195312 199.832031 153.152344 199.996094 153.058594 L 207.070312 148.992188 C 207.566406 148.707031 207.734375 148.078125 207.449219 147.582031 " fill-opacity="1" fill-rule="nonzero"/><g clip-path="url(#85a5830a48)"><path fill="#fe5000" d="M 211.285156 165.046875 L 203.117188 165.046875 C 202.546875 165.046875 202.082031 165.507812 202.082031 166.078125 C 202.082031 166.648438 202.546875 167.113281 203.117188 167.113281 L 211.285156 167.113281 C 211.855469 167.113281 212.320312 166.648438 212.320312 166.078125 C 212.320312 165.507812 211.855469 165.046875 211.285156 165.046875 " fill-opacity="1" fill-rule="nonzero"/></g><g clip-path="url(#6fe4b7c769)"><path fill="#fe5000" d="M 147.324219 164.65625 L 139.15625 164.65625 C 138.582031 164.65625 138.121094 165.121094 138.121094 165.691406 C 138.121094 166.261719 138.582031 166.722656 139.15625 166.722656 L 147.324219 166.722656 C 147.894531 166.722656 148.359375 166.261719 148.359375 165.691406 C 148.359375 165.121094 147.894531 164.65625 147.324219 164.65625 " fill-opacity="1" fill-rule="nonzero"/></g><path fill="#fe5000" d="M 152.054688 152.34375 C 152.34375 151.851562 152.171875 151.21875 151.675781 150.933594 L 144.605469 146.867188 C 144.109375 146.582031 143.472656 146.753906 143.1875 147.246094 C 142.902344 147.738281 143.070312 148.371094 143.566406 148.65625 L 150.640625 152.722656 C 150.800781 152.816406 150.980469 152.859375 151.15625 152.859375 C 151.515625 152.859375 151.863281 152.675781 152.054688 152.34375 " fill-opacity="1" fill-rule="nonzero"/><path fill="#fe5000" d="M 160.542969 142.25 C 160.734375 142.578125 161.082031 142.765625 161.441406 142.765625 C 161.617188 142.765625 161.796875 142.71875 161.960938 142.625 C 162.453125 142.339844 162.625 141.710938 162.339844 141.214844 L 158.253906 134.175781 C 157.96875 133.679688 157.335938 133.511719 156.839844 133.796875 C 156.34375 134.082031 156.171875 134.710938 156.460938 135.207031 L 160.542969 142.25 " fill-opacity="1" fill-rule="nonzero"/><path fill="#fe5000" d="M 174.503906 150.265625 L 174.441406 150.183594 C 173.941406 149.566406 173.179688 149.171875 172.324219 149.171875 C 171.105469 149.171875 170.078125 149.96875 169.734375 151.066406 C 169.746094 151.074219 169.753906 151.082031 169.761719 151.089844 C 169.847656 151.171875 169.851562 151.304688 169.777344 151.394531 C 169.742188 151.46875 169.785156 151.777344 170.375 152.332031 C 170.808594 152.203125 172.15625 151.878906 173.015625 152.636719 C 173.109375 152.71875 173.121094 152.859375 173.035156 152.953125 C 172.992188 153.003906 172.929688 153.03125 172.867188 153.03125 C 172.8125 153.03125 172.757812 153.011719 172.714844 152.976562 C 172.085938 152.421875 171.039062 152.621094 170.601562 152.742188 C 170.585938 152.832031 170.511719 152.910156 170.414062 152.925781 C 170.257812 152.953125 170.148438 153.023438 170.074219 153.152344 C 169.777344 153.667969 170.128906 154.851562 170.289062 155.261719 C 170.332031 155.378906 170.273438 155.511719 170.15625 155.554688 C 170.132812 155.566406 170.101562 155.570312 170.074219 155.570312 C 169.984375 155.570312 169.898438 155.515625 169.863281 155.425781 C 169.796875 155.253906 169.226562 153.722656 169.679688 152.929688 C 169.757812 152.789062 169.867188 152.679688 170 152.601562 C 169.554688 152.167969 169.324219 151.789062 169.316406 151.464844 C 169.316406 151.398438 169.324219 151.339844 169.335938 151.292969 C 169.195312 151.269531 169.050781 151.257812 168.90625 151.257812 C 167.40625 151.257812 166.191406 152.464844 166.191406 153.957031 C 166.191406 154.089844 166.203125 154.21875 166.222656 154.347656 C 164.96875 154.585938 164.023438 155.679688 164.023438 156.996094 C 164.023438 157.324219 164.082031 157.636719 164.1875 157.925781 C 164.222656 157.910156 164.261719 157.902344 164.304688 157.910156 C 164.660156 157.957031 165.664062 158.011719 166.050781 157.6875 C 166.140625 157.617188 166.1875 157.53125 166.195312 157.421875 C 166.175781 157.160156 166.0625 155.511719 166.617188 154.976562 C 166.765625 154.835938 166.953125 154.773438 167.15625 154.796875 C 167.28125 154.8125 167.367188 154.921875 167.355469 155.046875 C 167.339844 155.171875 167.226562 155.261719 167.101562 155.246094 C 167.035156 155.238281 166.984375 155.253906 166.933594 155.300781 C 166.636719 155.589844 166.597656 156.652344 166.644531 157.3125 C 167.648438 158.195312 168.507812 157.957031 168.515625 157.953125 C 168.636719 157.917969 168.761719 157.988281 168.800781 158.105469 C 168.835938 158.226562 168.765625 158.351562 168.644531 158.386719 C 168.628906 158.394531 168.46875 158.4375 168.214844 158.4375 C 167.824219 158.4375 167.207031 158.332031 166.535156 157.8125 C 166.488281 157.894531 166.421875 157.972656 166.339844 158.039062 C 165.984375 158.332031 165.378906 158.398438 164.90625 158.398438 C 164.574219 158.398438 164.304688 158.367188 164.242188 158.355469 C 164.195312 158.351562 164.152344 158.328125 164.121094 158.300781 C 163.722656 158.769531 163.480469 159.375 163.480469 160.039062 C 163.480469 160.453125 163.574219 160.84375 163.742188 161.191406 C 164.761719 161.058594 166.28125 161.019531 166.792969 161.820312 C 168.570312 160.847656 169.277344 161.691406 169.308594 161.726562 C 169.386719 161.824219 169.371094 161.96875 169.273438 162.046875 C 169.175781 162.125 169.035156 162.109375 168.957031 162.015625 C 168.941406 161.996094 168.402344 161.433594 166.960938 162.246094 C 167.0625 162.636719 167.054688 162.964844 167.050781 163.234375 C 167.035156 163.84375 167.03125 164.179688 168.25 164.738281 C 168.367188 164.789062 168.414062 164.925781 168.363281 165.039062 C 168.324219 165.121094 168.242188 165.167969 168.15625 165.167969 C 168.125 165.167969 168.09375 165.164062 168.0625 165.148438 C 166.671875 164.511719 166.578125 163.996094 166.59375 163.226562 C 166.601562 162.921875 166.605469 162.605469 166.476562 162.207031 C 166.230469 161.433594 164.511719 161.527344 163.457031 161.695312 C 162.917969 162.1875 162.582031 162.894531 162.582031 163.675781 C 162.582031 164.53125 162.980469 165.292969 163.605469 165.785156 C 163.578125 165.816406 163.554688 165.84375 163.53125 165.875 C 164.648438 165.984375 166.101562 166.355469 166.746094 167.488281 C 167.449219 166.890625 168.960938 167.019531 169.15625 167.035156 C 169.277344 167.050781 169.371094 167.160156 169.359375 167.285156 C 169.347656 167.410156 169.234375 167.5 169.109375 167.488281 C 168.625 167.441406 167.183594 167.433594 166.898438 168.007812 C 166.574219 168.660156 166.421875 170.390625 166.417969 170.410156 C 166.410156 170.527344 166.308594 170.617188 166.191406 170.617188 C 166.1875 170.617188 166.179688 170.617188 166.171875 170.617188 C 166.046875 170.605469 165.957031 170.496094 165.964844 170.371094 C 165.972656 170.296875 166.117188 168.679688 166.449219 167.902344 C 165.933594 166.710938 164.347656 166.386719 163.25 166.308594 C 163.054688 166.679688 162.941406 167.101562 162.941406 167.550781 C 162.941406 168.265625 163.222656 168.914062 163.675781 169.398438 C 162.746094 169.824219 162.105469 170.761719 162.105469 171.84375 C 162.105469 172.828125 162.632812 173.6875 163.417969 174.160156 C 163.472656 174.140625 163.535156 174.144531 163.59375 174.171875 C 163.613281 174.179688 165.542969 175.113281 167.859375 173.902344 C 167.851562 173.882812 167.84375 173.859375 167.835938 173.839844 C 167.261719 171.777344 168.769531 170.527344 168.832031 170.476562 C 168.929688 170.394531 169.074219 170.410156 169.152344 170.507812 C 169.234375 170.605469 169.21875 170.746094 169.121094 170.824219 C 169.066406 170.871094 167.78125 171.949219 168.277344 173.71875 C 168.472656 174.429688 169.015625 174.863281 169.882812 175.007812 C 170.570312 175.125 171.203125 175.011719 171.210938 175.011719 C 171.335938 174.988281 171.453125 175.070312 171.476562 175.195312 C 171.5 175.316406 171.417969 175.433594 171.292969 175.457031 C 171.273438 175.460938 170.96875 175.515625 170.546875 175.515625 C 170.328125 175.515625 170.078125 175.5 169.820312 175.457031 C 168.976562 175.316406 168.367188 174.929688 168.035156 174.320312 C 167.054688 174.828125 166.144531 174.984375 165.394531 174.984375 C 164.46875 174.984375 163.789062 174.746094 163.515625 174.632812 C 163.492188 174.773438 163.480469 174.917969 163.480469 175.066406 C 163.480469 176.253906 164.25 177.261719 165.320312 177.621094 C 165.503906 178.933594 166.636719 179.945312 168.007812 179.945312 C 168.015625 179.945312 168.027344 179.941406 168.042969 179.941406 C 168.042969 179.941406 168.042969 179.945312 168.042969 179.945312 C 168.066406 179.945312 168.089844 179.945312 168.113281 179.957031 C 168.144531 179.964844 170.152344 180.636719 171.003906 179.792969 C 170.933594 179.425781 170.851562 178.351562 171.953125 177.300781 C 172.042969 177.214844 172.1875 177.21875 172.273438 177.308594 C 172.363281 177.398438 172.359375 177.542969 172.269531 177.628906 C 171.5 178.359375 171.402344 179.085938 171.421875 179.484375 C 171.425781 179.488281 171.433594 179.492188 171.4375 179.5 C 171.703125 179.867188 172.019531 180.078125 172.375 180.132812 C 172.988281 180.222656 173.539062 179.8125 173.542969 179.808594 C 173.644531 179.734375 173.785156 179.75 173.863281 179.851562 C 173.9375 179.949219 173.917969 180.089844 173.820312 180.167969 C 173.792969 180.1875 173.25 180.597656 172.554688 180.597656 C 172.476562 180.597656 172.398438 180.59375 172.3125 180.582031 C 171.957031 180.527344 171.632812 180.363281 171.347656 180.089844 C 170.917969 180.535156 170.28125 180.667969 169.675781 180.667969 C 169.058594 180.667969 168.476562 180.53125 168.175781 180.445312 C 168.558594 181.476562 169.550781 182.210938 170.71875 182.210938 C 170.964844 182.210938 171.207031 182.175781 171.4375 182.113281 C 171.664062 182.175781 171.90625 182.210938 172.15625 182.210938 C 173.652344 182.210938 174.867188 181 174.867188 179.511719 C 174.867188 179.019531 174.9375 178.6875 174.820312 178.210938 L 174.890625 170.328125 C 174.277344 170.390625 173.652344 170.539062 173.414062 170.816406 C 173.617188 171.128906 174.039062 171.960938 173.75 173.027344 C 173.722656 173.128906 173.632812 173.195312 173.53125 173.195312 C 173.511719 173.195312 173.492188 173.195312 173.472656 173.1875 C 173.351562 173.15625 173.277344 173.03125 173.3125 172.910156 C 173.566406 171.972656 173.164062 171.261719 173.015625 171.035156 C 171.476562 170.898438 170.570312 172.078125 170.558594 172.089844 C 170.515625 172.148438 170.445312 172.179688 170.378906 172.179688 C 170.328125 172.179688 170.28125 172.164062 170.242188 172.132812 C 170.140625 172.058594 170.121094 171.917969 170.195312 171.816406 C 170.238281 171.757812 171.257812 170.441406 173.019531 170.582031 C 173.371094 170.109375 174.230469 169.9375 174.894531 169.871094 L 174.960938 162.121094 C 174.113281 162.621094 172.316406 163.878906 172.328125 164.804688 C 172.640625 165.007812 173.449219 165.660156 173.257812 167.015625 C 173.242188 167.128906 173.144531 167.210938 173.03125 167.210938 C 173.019531 167.210938 173.011719 167.210938 173 167.207031 C 172.875 167.191406 172.789062 167.074219 172.804688 166.953125 C 172.960938 165.863281 172.351562 165.359375 172.109375 165.203125 C 170.808594 165.988281 171.464844 168.472656 171.472656 168.496094 C 171.503906 168.617188 171.433594 168.742188 171.3125 168.773438 C 171.292969 168.78125 171.273438 168.78125 171.25 168.78125 C 171.152344 168.78125 171.058594 168.714844 171.03125 168.617188 C 171 168.496094 170.277344 165.773438 171.871094 164.816406 C 171.859375 163.394531 174.535156 161.839844 174.851562 161.660156 C 174.886719 161.640625 174.925781 161.632812 174.964844 161.632812 L 175.019531 155.476562 C 174.175781 155.707031 173.09375 156.152344 172.363281 157.011719 C 172.5 157.46875 172.914062 159.082031 172.296875 159.949219 C 172.25 160.011719 172.183594 160.046875 172.109375 160.046875 C 172.066406 160.046875 172.019531 160.035156 171.980469 160.003906 C 171.875 159.933594 171.851562 159.792969 171.925781 159.691406 C 172.390625 159.035156 172.085938 157.625 171.910156 157.078125 C 171.882812 157.054688 171.855469 157.027344 171.828125 157.007812 L 169.746094 157.328125 C 169.546875 157.429688 169.378906 157.527344 169.257812 157.609375 C 169.21875 157.636719 169.175781 157.648438 169.132812 157.648438 C 169.058594 157.648438 168.984375 157.613281 168.941406 157.546875 C 168.871094 157.441406 168.902344 157.300781 169.007812 157.230469 C 169.09375 157.171875 171.074219 155.886719 172.089844 156.632812 C 172.933594 155.691406 174.128906 155.230469 175.023438 155.003906 L 175.035156 153.761719 C 175.089844 153.144531 175.035156 152.472656 175.035156 151.871094 C 175.035156 151.269531 174.835938 150.714844 174.503906 150.265625 " fill-opacity="1" fill-rule="nonzero"/><path fill="#fe5000" d="M 186.960938 169.398438 C 187.414062 168.914062 187.695312 168.265625 187.695312 167.550781 C 187.695312 167.101562 187.582031 166.679688 187.386719 166.308594 C 186.285156 166.386719 184.703125 166.710938 184.1875 167.902344 C 184.519531 168.679688 184.664062 170.296875 184.671875 170.371094 C 184.679688 170.496094 184.589844 170.605469 184.460938 170.617188 C 184.457031 170.617188 184.449219 170.617188 184.441406 170.617188 C 184.328125 170.617188 184.226562 170.527344 184.214844 170.410156 C 184.214844 170.390625 184.0625 168.660156 183.738281 168.007812 C 183.453125 167.433594 182.007812 167.441406 181.527344 167.488281 C 181.402344 167.5 181.289062 167.410156 181.277344 167.285156 C 181.265625 167.160156 181.355469 167.050781 181.480469 167.035156 C 181.675781 167.019531 183.183594 166.890625 183.890625 167.488281 C 184.535156 166.355469 185.988281 165.984375 187.105469 165.875 C 187.082031 165.84375 187.058594 165.816406 187.03125 165.785156 C 187.652344 165.292969 188.054688 164.53125 188.054688 163.675781 C 188.054688 162.894531 187.71875 162.1875 187.179688 161.695312 C 186.125 161.527344 184.40625 161.433594 184.160156 162.207031 C 184.03125 162.605469 184.035156 162.921875 184.042969 163.226562 C 184.058594 163.996094 183.964844 164.511719 182.574219 165.148438 C 182.542969 165.164062 182.511719 165.167969 182.480469 165.167969 C 182.394531 165.167969 182.3125 165.121094 182.273438 165.039062 C 182.21875 164.925781 182.269531 164.789062 182.382812 164.738281 C 183.605469 164.179688 183.597656 163.84375 183.585938 163.234375 C 183.582031 162.964844 183.574219 162.636719 183.675781 162.246094 C 182.234375 161.433594 181.695312 161.996094 181.679688 162.015625 C 181.601562 162.109375 181.460938 162.125 181.363281 162.046875 C 181.265625 161.96875 181.25 161.824219 181.328125 161.726562 C 181.355469 161.691406 182.066406 160.847656 183.84375 161.820312 C 184.355469 161.019531 185.875 161.058594 186.894531 161.191406 C 187.058594 160.84375 187.15625 160.453125 187.15625 160.039062 C 187.15625 159.375 186.914062 158.769531 186.515625 158.300781 C 186.484375 158.328125 186.441406 158.351562 186.394531 158.355469 C 186.332031 158.367188 186.0625 158.398438 185.726562 158.398438 C 185.257812 158.398438 184.652344 158.332031 184.292969 158.039062 C 184.214844 157.972656 184.148438 157.894531 184.101562 157.8125 C 183.429688 158.332031 182.8125 158.4375 182.421875 158.4375 C 182.167969 158.4375 182.007812 158.394531 181.992188 158.386719 C 181.871094 158.351562 181.800781 158.226562 181.835938 158.105469 C 181.871094 157.988281 182 157.917969 182.121094 157.953125 C 182.128906 157.957031 182.988281 158.195312 183.992188 157.3125 C 184.039062 156.652344 184 155.589844 183.699219 155.300781 C 183.652344 155.253906 183.601562 155.238281 183.535156 155.246094 C 183.410156 155.261719 183.296875 155.171875 183.28125 155.046875 C 183.265625 154.921875 183.355469 154.8125 183.480469 154.796875 C 183.683594 154.773438 183.871094 154.835938 184.015625 154.976562 C 184.570312 155.511719 184.460938 157.160156 184.441406 157.421875 C 184.449219 157.53125 184.496094 157.617188 184.585938 157.6875 C 184.972656 158.011719 185.976562 157.957031 186.332031 157.910156 C 186.375 157.902344 186.414062 157.910156 186.449219 157.925781 C 186.554688 157.636719 186.613281 157.324219 186.613281 156.996094 C 186.613281 155.679688 185.667969 154.585938 184.414062 154.347656 C 184.433594 154.21875 184.441406 154.089844 184.441406 153.957031 C 184.441406 152.464844 183.230469 151.257812 181.730469 151.257812 C 181.585938 151.257812 181.441406 151.269531 181.300781 151.292969 C 181.3125 151.339844 181.320312 151.398438 181.320312 151.464844 C 181.3125 151.789062 181.082031 152.167969 180.632812 152.601562 C 180.765625 152.679688 180.878906 152.789062 180.957031 152.929688 C 181.410156 153.722656 180.839844 155.253906 180.773438 155.425781 C 180.738281 155.515625 180.652344 155.570312 180.5625 155.570312 C 180.535156 155.570312 180.503906 155.566406 180.480469 155.554688 C 180.363281 155.511719 180.304688 155.378906 180.347656 155.261719 C 180.507812 154.851562 180.855469 153.667969 180.5625 153.152344 C 180.488281 153.023438 180.378906 152.953125 180.21875 152.925781 C 180.121094 152.910156 180.050781 152.832031 180.035156 152.742188 C 179.597656 152.621094 178.550781 152.421875 177.921875 152.976562 C 177.878906 153.011719 177.824219 153.03125 177.769531 153.03125 C 177.707031 153.03125 177.644531 153.003906 177.601562 152.953125 C 177.515625 152.859375 177.527344 152.71875 177.621094 152.636719 C 178.480469 151.878906 179.828125 152.203125 180.257812 152.332031 C 180.847656 151.777344 180.894531 151.46875 180.859375 151.394531 C 180.785156 151.304688 180.789062 151.171875 180.875 151.089844 C 180.882812 151.082031 180.890625 151.074219 180.902344 151.066406 C 180.558594 149.96875 179.53125 149.171875 178.3125 149.171875 C 177.457031 149.171875 176.691406 149.566406 176.195312 150.183594 L 176.132812 150.265625 C 175.800781 150.714844 175.601562 151.269531 175.601562 151.871094 C 175.601562 152.472656 175.546875 153.144531 175.601562 153.761719 L 175.613281 155.003906 C 176.507812 155.230469 177.703125 155.691406 178.546875 156.632812 C 179.5625 155.886719 181.539062 157.171875 181.628906 157.230469 C 181.734375 157.300781 181.761719 157.441406 181.695312 157.546875 C 181.648438 157.613281 181.578125 157.648438 181.503906 157.648438 C 181.460938 157.648438 181.417969 157.636719 181.378906 157.609375 C 181.257812 157.527344 181.085938 157.429688 180.890625 157.328125 L 178.808594 157.007812 C 178.777344 157.027344 178.753906 157.054688 178.726562 157.078125 C 178.550781 157.625 178.246094 159.035156 178.710938 159.691406 C 178.785156 159.792969 178.757812 159.933594 178.65625 160.003906 C 178.617188 160.035156 178.570312 160.046875 178.527344 160.046875 C 178.453125 160.046875 178.382812 160.011719 178.339844 159.949219 C 177.722656 159.082031 178.136719 157.46875 178.273438 157.011719 C 177.542969 156.152344 176.460938 155.707031 175.617188 155.476562 L 175.671875 161.632812 C 175.710938 161.632812 175.75 161.640625 175.785156 161.660156 C 176.101562 161.839844 178.773438 163.394531 178.761719 164.816406 C 180.359375 165.773438 179.636719 168.496094 179.605469 168.617188 C 179.574219 168.714844 179.484375 168.78125 179.382812 168.78125 C 179.363281 168.78125 179.34375 168.78125 179.324219 168.773438 C 179.203125 168.742188 179.132812 168.617188 179.164062 168.496094 C 179.171875 168.472656 179.828125 165.988281 178.527344 165.203125 C 178.285156 165.359375 177.675781 165.863281 177.832031 166.953125 C 177.847656 167.074219 177.761719 167.191406 177.636719 167.207031 C 177.625 167.210938 177.617188 167.210938 177.605469 167.210938 C 177.492188 167.210938 177.394531 167.128906 177.378906 167.015625 C 177.1875 165.660156 177.996094 165.007812 178.308594 164.804688 C 178.316406 163.878906 176.523438 162.621094 175.675781 162.121094 L 175.742188 169.871094 C 176.40625 169.9375 177.261719 170.109375 177.617188 170.582031 C 179.378906 170.441406 180.398438 171.757812 180.441406 171.816406 C 180.515625 171.917969 180.496094 172.058594 180.394531 172.132812 C 180.355469 172.164062 180.304688 172.179688 180.257812 172.179688 C 180.191406 172.179688 180.121094 172.148438 180.078125 172.089844 C 180.066406 172.078125 179.160156 170.898438 177.621094 171.035156 C 177.46875 171.261719 177.070312 171.972656 177.324219 172.910156 C 177.355469 173.03125 177.285156 173.15625 177.164062 173.1875 C 177.144531 173.195312 177.125 173.195312 177.105469 173.195312 C 177.003906 173.195312 176.914062 173.128906 176.886719 173.027344 C 176.59375 171.960938 177.019531 171.128906 177.222656 170.816406 C 176.984375 170.539062 176.359375 170.390625 175.746094 170.328125 L 175.8125 178.210938 C 175.699219 178.6875 175.769531 179.019531 175.769531 179.511719 C 175.769531 181 176.984375 182.210938 178.480469 182.210938 C 178.730469 182.210938 178.96875 182.175781 179.199219 182.113281 C 179.429688 182.175781 179.671875 182.210938 179.917969 182.210938 C 181.085938 182.210938 182.078125 181.476562 182.460938 180.445312 C 182.160156 180.53125 181.578125 180.667969 180.960938 180.667969 C 180.355469 180.667969 179.71875 180.535156 179.289062 180.089844 C 179.003906 180.363281 178.679688 180.527344 178.320312 180.582031 C 178.238281 180.59375 178.160156 180.597656 178.082031 180.597656 C 177.386719 180.597656 176.839844 180.1875 176.816406 180.167969 C 176.71875 180.089844 176.699219 179.949219 176.773438 179.851562 C 176.851562 179.75 176.992188 179.734375 177.09375 179.808594 C 177.097656 179.8125 177.648438 180.222656 178.261719 180.132812 C 178.613281 180.078125 178.929688 179.867188 179.199219 179.5 C 179.203125 179.492188 179.207031 179.488281 179.214844 179.484375 C 179.234375 179.085938 179.136719 178.359375 178.367188 177.628906 C 178.277344 177.542969 178.273438 177.398438 178.363281 177.308594 C 178.449219 177.21875 178.59375 177.214844 178.683594 177.300781 C 179.785156 178.351562 179.703125 179.425781 179.632812 179.792969 C 180.480469 180.636719 182.492188 179.964844 182.519531 179.957031 C 182.546875 179.945312 182.570312 179.945312 182.59375 179.945312 C 182.59375 179.945312 182.59375 179.941406 182.59375 179.941406 C 182.605469 179.941406 182.617188 179.945312 182.628906 179.945312 C 184 179.945312 185.128906 178.933594 185.316406 177.621094 C 186.382812 177.261719 187.15625 176.253906 187.15625 175.066406 C 187.15625 174.917969 187.140625 174.773438 187.121094 174.632812 C 186.847656 174.746094 186.164062 174.984375 185.242188 174.984375 C 184.492188 174.984375 183.582031 174.828125 182.601562 174.320312 C 182.269531 174.929688 181.660156 175.316406 180.816406 175.457031 C 180.558594 175.5 180.308594 175.515625 180.089844 175.515625 C 179.667969 175.515625 179.363281 175.460938 179.34375 175.457031 C 179.21875 175.433594 179.136719 175.316406 179.160156 175.195312 C 179.183594 175.070312 179.300781 174.988281 179.425781 175.011719 C 179.429688 175.011719 180.066406 175.125 180.753906 175.007812 C 181.621094 174.863281 182.164062 174.429688 182.359375 173.71875 C 182.851562 171.949219 181.570312 170.871094 181.515625 170.824219 C 181.417969 170.746094 181.402344 170.605469 181.480469 170.507812 C 181.5625 170.410156 181.707031 170.394531 181.800781 170.476562 C 181.867188 170.527344 183.375 171.777344 182.796875 173.839844 C 182.792969 173.859375 182.785156 173.882812 182.777344 173.902344 C 185.09375 175.113281 187.023438 174.179688 187.042969 174.171875 C 187.101562 174.144531 187.160156 174.140625 187.21875 174.160156 C 188.003906 173.6875 188.53125 172.828125 188.53125 171.84375 C 188.53125 170.761719 187.886719 169.824219 186.960938 169.398438 " fill-opacity="1" fill-rule="nonzero"/><g clip-path="url(#0bebb334e7)"><path fill="#ffffff" d="M 252.476562 43.082031 C 252.476562 44.703125 252.398438 46.320312 252.238281 47.933594 C 252.078125 49.546875 251.839844 51.148438 251.527344 52.738281 C 251.210938 54.328125 250.816406 55.898438 250.34375 57.449219 C 249.875 59 249.328125 60.527344 248.707031 62.023438 C 248.089844 63.523438 247.394531 64.984375 246.632812 66.414062 C 245.867188 67.84375 245.035156 69.234375 244.132812 70.582031 C 243.234375 71.929688 242.269531 73.230469 241.242188 74.484375 C 240.210938 75.738281 239.125 76.9375 237.976562 78.082031 C 236.832031 79.230469 235.632812 80.316406 234.378906 81.34375 C 233.125 82.375 231.824219 83.339844 230.476562 84.238281 C 229.128906 85.140625 227.742188 85.972656 226.3125 86.734375 C 224.882812 87.5 223.417969 88.191406 221.917969 88.8125 C 220.421875 89.433594 218.898438 89.980469 217.347656 90.449219 C 215.792969 90.921875 214.222656 91.3125 212.632812 91.628906 C 211.042969 91.945312 209.441406 92.183594 207.828125 92.34375 C 206.214844 92.5 204.597656 92.582031 202.976562 92.582031 C 201.355469 92.582031 199.738281 92.5 198.125 92.34375 C 196.511719 92.183594 194.910156 91.945312 193.320312 91.628906 C 191.730469 91.3125 190.160156 90.921875 188.609375 90.449219 C 187.054688 89.980469 185.53125 89.433594 184.035156 88.8125 C 182.535156 88.191406 181.070312 87.5 179.640625 86.734375 C 178.210938 85.972656 176.824219 85.140625 175.476562 84.238281 C 174.128906 83.339844 172.828125 82.375 171.574219 81.34375 C 170.320312 80.316406 169.121094 79.230469 167.976562 78.082031 C 166.828125 76.9375 165.742188 75.738281 164.710938 74.484375 C 163.683594 73.230469 162.71875 71.929688 161.820312 70.582031 C 160.917969 69.234375 160.085938 67.84375 159.320312 66.414062 C 158.558594 64.984375 157.863281 63.523438 157.246094 62.023438 C 156.625 60.527344 156.078125 59 155.609375 57.449219 C 155.136719 55.898438 154.742188 54.328125 154.429688 52.738281 C 154.113281 51.148438 153.875 49.546875 153.714844 47.933594 C 153.554688 46.320312 153.476562 44.703125 153.476562 43.082031 C 153.476562 41.460938 153.554688 39.84375 153.714844 38.230469 C 153.875 36.617188 154.113281 35.015625 154.429688 33.425781 C 154.742188 31.835938 155.136719 30.261719 155.609375 28.710938 C 156.078125 27.160156 156.625 25.636719 157.246094 24.136719 C 157.863281 22.640625 158.558594 21.175781 159.320312 19.746094 C 160.085938 18.316406 160.917969 16.929688 161.820312 15.582031 C 162.71875 14.234375 163.683594 12.933594 164.710938 11.679688 C 165.742188 10.425781 166.828125 9.226562 167.976562 8.078125 C 169.121094 6.933594 170.320312 5.84375 171.574219 4.816406 C 172.828125 3.789062 174.128906 2.824219 175.476562 1.921875 C 176.824219 1.023438 178.210938 0.191406 179.640625 -0.574219 C 181.070312 -1.339844 182.535156 -2.03125 184.035156 -2.652344 C 185.53125 -3.269531 187.054688 -3.816406 188.609375 -4.289062 C 190.160156 -4.757812 191.730469 -5.152344 193.320312 -5.46875 C 194.910156 -5.785156 196.511719 -6.023438 198.125 -6.179688 C 199.738281 -6.339844 201.355469 -6.417969 202.976562 -6.417969 C 204.597656 -6.417969 206.214844 -6.339844 207.828125 -6.179688 C 209.441406 -6.023438 211.042969 -5.785156 212.632812 -5.46875 C 214.222656 -5.152344 215.792969 -4.757812 217.347656 -4.289062 C 218.898438 -3.816406 220.421875 -3.269531 221.917969 -2.652344 C 223.417969 -2.03125 224.882812 -1.339844 226.3125 -0.574219 C 227.742188 0.191406 229.128906 1.023438 230.476562 1.921875 C 231.824219 2.824219 233.125 3.789062 234.378906 4.816406 C 235.632812 5.84375 236.832031 6.933594 237.976562 8.078125 C 239.125 9.226562 240.210938 10.425781 241.242188 11.679688 C 242.269531 12.933594 243.234375 14.234375 244.132812 15.582031 C 245.035156 16.929688 245.867188 18.316406 246.632812 19.746094 C 247.394531 21.175781 248.089844 22.640625 248.707031 24.136719 C 249.328125 25.636719 249.875 27.160156 250.34375 28.710938 C 250.816406 30.261719 251.210938 31.835938 251.527344 33.425781 C 251.839844 35.015625 252.078125 36.617188 252.238281 38.230469 C 252.398438 39.84375 252.476562 41.460938 252.476562 43.082031 Z M 252.476562 43.082031 " fill-opacity="1" fill-rule="nonzero"/></g><g clip-path="url(#f119ec630b)"><path fill="#ffffff" d="M 335.453125 71.277344 C 335.453125 72.898438 335.371094 74.515625 335.214844 76.128906 C 335.054688 77.746094 334.816406 79.347656 334.5 80.9375 C 334.183594 82.527344 333.789062 84.097656 333.320312 85.648438 C 332.851562 87.199219 332.304688 88.722656 331.683594 90.222656 C 331.0625 91.71875 330.371094 93.183594 329.605469 94.613281 C 328.84375 96.042969 328.011719 97.433594 327.109375 98.78125 C 326.207031 100.128906 325.246094 101.429688 324.214844 102.679688 C 323.1875 103.933594 322.101562 105.132812 320.953125 106.28125 C 319.808594 107.425781 318.605469 108.515625 317.355469 109.542969 C 316.101562 110.570312 314.800781 111.535156 313.453125 112.4375 C 312.105469 113.335938 310.714844 114.167969 309.285156 114.933594 C 307.855469 115.699219 306.390625 116.390625 304.894531 117.011719 C 303.398438 117.632812 301.871094 118.175781 300.320312 118.648438 C 298.769531 119.117188 297.199219 119.511719 295.609375 119.828125 C 294.019531 120.144531 292.417969 120.382812 290.804688 120.539062 C 289.191406 120.699219 287.574219 120.777344 285.953125 120.777344 C 284.332031 120.777344 282.714844 120.699219 281.101562 120.539062 C 279.488281 120.382812 277.886719 120.144531 276.292969 119.828125 C 274.703125 119.511719 273.132812 119.117188 271.582031 118.648438 C 270.03125 118.175781 268.507812 117.632812 267.007812 117.011719 C 265.511719 116.390625 264.046875 115.699219 262.617188 114.933594 C 261.1875 114.167969 259.800781 113.335938 258.449219 112.4375 C 257.101562 111.535156 255.800781 110.570312 254.550781 109.542969 C 253.296875 108.515625 252.097656 107.425781 250.949219 106.28125 C 249.804688 105.132812 248.714844 103.933594 247.6875 102.679688 C 246.660156 101.429688 245.695312 100.128906 244.792969 98.78125 C 243.894531 97.433594 243.0625 96.042969 242.296875 94.613281 C 241.53125 93.183594 240.839844 91.71875 240.21875 90.222656 C 239.597656 88.722656 239.054688 87.199219 238.582031 85.648438 C 238.113281 84.097656 237.71875 82.527344 237.402344 80.9375 C 237.085938 79.347656 236.847656 77.746094 236.691406 76.128906 C 236.53125 74.515625 236.453125 72.898438 236.453125 71.277344 C 236.453125 69.65625 236.53125 68.039062 236.691406 66.425781 C 236.847656 64.8125 237.085938 63.210938 237.402344 61.621094 C 237.71875 60.03125 238.113281 58.460938 238.582031 56.910156 C 239.054688 55.359375 239.597656 53.832031 240.21875 52.335938 C 240.839844 50.839844 241.53125 49.375 242.296875 47.945312 C 243.0625 46.515625 243.894531 45.125 244.792969 43.777344 C 245.695312 42.429688 246.660156 41.128906 247.6875 39.875 C 248.714844 38.625 249.804688 37.421875 250.949219 36.277344 C 252.097656 35.128906 253.296875 34.042969 254.550781 33.015625 C 255.800781 31.988281 257.101562 31.023438 258.449219 30.121094 C 259.800781 29.21875 261.1875 28.386719 262.617188 27.625 C 264.046875 26.859375 265.511719 26.167969 267.007812 25.546875 C 268.507812 24.925781 270.03125 24.382812 271.582031 23.910156 C 273.132812 23.441406 274.703125 23.046875 276.292969 22.730469 C 277.886719 22.414062 279.488281 22.175781 281.101562 22.015625 C 282.714844 21.859375 284.332031 21.777344 285.953125 21.777344 C 287.574219 21.777344 289.191406 21.859375 290.804688 22.015625 C 292.417969 22.175781 294.019531 22.414062 295.609375 22.730469 C 297.199219 23.046875 298.769531 23.441406 300.320312 23.910156 C 301.871094 24.382812 303.398438 24.925781 304.894531 25.546875 C 306.390625 26.167969 307.855469 26.859375 309.285156 27.625 C 310.714844 28.386719 312.105469 29.21875 313.453125 30.121094 C 314.800781 31.023438 316.101562 31.988281 317.355469 33.015625 C 318.605469 34.042969 319.808594 35.128906 320.953125 36.277344 C 322.101562 37.421875 323.1875 38.625 324.214844 39.875 C 325.246094 41.128906 326.207031 42.429688 327.109375 43.777344 C 328.011719 45.125 328.84375 46.515625 329.605469 47.945312 C 330.371094 49.375 331.0625 50.839844 331.683594 52.335938 C 332.304688 53.832031 332.851562 55.359375 333.320312 56.910156 C 333.789062 58.460938 334.183594 60.03125 334.5 61.621094 C 334.816406 63.210938 335.054688 64.8125 335.214844 66.425781 C 335.371094 68.039062 335.453125 69.65625 335.453125 71.277344 Z M 335.453125 71.277344 " fill-opacity="1" fill-rule="nonzero"/></g></svg>